<?xml version="1.0" encoding="UTF-8"?>
<svg version="1.1" xmlns="http://www.w3.org/2000/svg" width="512" height="512">
<path d="M0 0 C3.61568017 3.09753472 7.01745267 6.3966482 10.42041016 9.72460938 C11.70044922 10.91183594 11.70044922 10.91183594 13.00634766 12.12304688 C23.79425472 22.3664539 32.01285712 34.8970642 39.42041016 47.72460938 C39.81083496 48.39862793 40.20125977 49.07264648 40.60351562 49.76708984 C46.19639928 59.48311459 51.27258855 69.34149024 55.92431641 79.54101562 C57.10610395 82.52337647 57.10610395 82.52337647 58.42041016 83.72460938 C58.68991234 82.92823311 58.68991234 82.92823311 58.96485901 82.11576843 C67.79076607 56.04134124 76.67127559 29.98841881 85.7722168 4.00854492 C86.22155075 2.72577919 86.22155075 2.72577919 86.67996216 1.417099 C87.23307367 -0.16101546 87.78671807 -1.7389433 88.34103394 -3.31663513 C89.73575227 -7.29181373 91.10030615 -11.27459908 92.42041016 -15.27539062 C100.28534772 -15.49468268 108.15062001 -15.68951407 116.01660156 -15.86743164 C118.69205171 -15.92906675 121.36682355 -15.99978042 124.04199219 -16.07446289 C127.88928934 -16.18089573 131.73659529 -16.26719365 135.58447266 -16.34960938 C137.37541855 -16.40564583 137.37541855 -16.40564583 139.20254517 -16.46281433 C149.5904164 -16.65048734 149.5904164 -16.65048734 154.42041016 -13.27539062 C156.72625297 -10.89516579 157.41843729 -9.26784635 157.42503357 -5.9495697 C156.85140638 0.91110153 155.35577518 6.88766185 153.01806641 13.34570312 C152.66921387 14.34201752 152.32036133 15.33833191 151.9609375 16.36483765 C150.81315667 19.63479772 149.64795711 22.89826569 148.48291016 26.16210938 C147.66507774 28.48349476 146.8486151 30.80536314 146.03344727 33.12768555 C144.34092131 37.94606501 142.64254856 42.76232243 140.93994141 47.57714844 C137.44087023 57.48571752 134.01168535 67.41830412 130.58294678 77.35137939 C128.73220325 82.7111729 126.87677825 88.06934556 125.02197266 93.42773438 C124.26708212 95.60937233 123.51219939 97.79101298 122.75732422 99.97265625 C120.72528386 105.84461887 118.69145892 111.71596223 116.65742493 117.5872345 C114.96503362 122.47345308 113.27398818 127.36013679 111.58322144 132.24691772 C110.78568914 134.55116256 109.98764073 136.85522885 109.18899536 139.15908813 C107.33475997 144.5084774 105.48957013 149.86054533 103.66381836 155.21972656 C102.09074365 159.82542259 100.44914161 164.40120992 98.77661133 168.97167969 C97.92056422 171.37488097 97.06484263 173.77819824 96.20947266 176.18164062 C95.79426865 177.28024918 95.37906464 178.37885773 94.95127869 179.51075745 C91.66749193 188.88702508 92.82377956 195.31445751 97.04931641 204.13867188 C97.44521973 204.89954102 97.84112305 205.66041016 98.24902344 206.44433594 C99.40694063 208.698389 100.40852827 210.97300687 101.38525391 213.31054688 C106.30574425 224.87338336 112.37977073 236.75167873 123.94775391 242.79492188 C129.69202164 244.95469395 134.36731593 244.36892485 139.98291016 242.09960938 C145.48420867 239.38256316 150.630162 236.00596264 154.43798828 231.15356445 C158.62763554 227.74141641 161.8155625 228.06752661 167.06103516 228.20117188 C167.98382263 228.20587494 168.90661011 228.210578 169.85736084 228.21542358 C172.79581153 228.23672752 175.73244307 228.29335043 178.67041016 228.34960938 C180.66258073 228.36611908 182.65477049 228.38046648 184.64697266 228.39257812 C199.22480954 228.52900876 199.22480954 228.52900876 200.42041016 229.72460938 C201.99547223 250.67184877 200.60462922 270.27659404 187.31884766 287.43945312 C185.10742519 289.97516546 182.81498216 292.36164888 180.42041016 294.72460938 C179.27958984 295.88089844 179.27958984 295.88089844 178.11572266 297.06054688 C171.61158785 303.30878129 164.44386922 307.69072142 156.42041016 311.72460938 C155.72786133 312.08868896 155.0353125 312.45276855 154.32177734 312.82788086 C148.69159118 315.60050752 144.03398707 316.33249196 137.79541016 316.16210938 C136.48890503 316.14011475 136.48890503 316.14011475 135.15600586 316.11767578 C111.42758579 315.43418584 92.4399769 306.01154577 75.42041016 289.72460938 C74.68306641 289.06203125 73.94572266 288.39945312 73.18603516 287.71679688 C65.98449578 281.0004676 60.73995736 272.94590959 55.42041016 264.72460938 C54.94539062 263.9964502 54.47037109 263.26829102 53.98095703 262.51806641 C53.52269531 261.80376465 53.06443359 261.08946289 52.59228516 260.35351562 C52.1755957 259.70584229 51.75890625 259.05816895 51.32958984 258.39086914 C50.42041016 256.72460938 50.42041016 256.72460938 50.42041016 254.72460938 C46.77491501 258.30664329 43.27782617 262.00516108 39.80151367 265.7512207 C16.28431975 291.02811024 -13.24883815 313.48572912 -49.15380859 314.96289062 C-83.32561262 315.71325668 -115.22811662 302.25067933 -140.23974609 279.05664062 C-166.9471806 252.43837953 -175.52162974 209.79533198 -175.7441864 173.44113159 C-175.74529922 172.35647614 -175.74641205 171.27182068 -175.74755859 170.15429688 C-175.75088699 168.9931839 -175.75421539 167.83207092 -175.75764465 166.63577271 C-175.7626742 164.19370923 -175.76505422 161.75163897 -175.76489258 159.30957031 C-175.76707179 155.63008932 -175.78525085 151.95091226 -175.80419922 148.27148438 C-175.85022059 129.99381745 -174.74311304 112.86471634 -170.45458984 95.03710938 C-170.149646 93.75690918 -169.84470215 92.47670898 -169.53051758 91.15771484 C-165.23221823 73.47469685 -159.38744232 56.66542285 -150.57958984 40.72460938 C-149.99306641 39.63792969 -149.40654297 38.55125 -148.80224609 37.43164062 C-145.00114248 30.63102668 -140.64349845 24.63408621 -135.57958984 18.72460938 C-134.90283203 17.9021875 -134.22607422 17.07976562 -133.52880859 16.23242188 C-102.95291127 -19.65373184 -37.63938827 -30.39075183 0 0 Z M-99.57958984 62.72460938 C-102.20990138 66.24286047 -104.43216105 69.89470848 -106.57958984 73.72460938 C-106.90314453 74.30065918 -107.22669922 74.87670898 -107.56005859 75.47021484 C-128.07951382 112.5880225 -131.20526581 160.80721853 -119.76611328 201.25024414 C-116.29987442 212.50038402 -110.65260575 223.32004528 -103.57958984 232.72460938 C-103.14517578 233.32273437 -102.71076172 233.92085937 -102.26318359 234.53710938 C-96.29314854 242.15698318 -87.52513338 248.1033673 -78.57958984 251.72460938 C-77.72880859 252.08039063 -76.87802734 252.43617188 -76.00146484 252.80273438 C-58.33084142 257.56331329 -39.07358677 252.53873199 -23.43896484 244.05273438 C-17.14320466 240.4058384 -11.79048751 235.76752765 -6.57958984 230.72460938 C-5.71978516 229.89445313 -4.85998047 229.06429687 -3.97412109 228.20898438 C9.15916331 214.59546859 18.18092471 197.58593097 26.42041016 180.72460938 C26.81615234 179.95262207 27.21189453 179.18063477 27.61962891 178.38525391 C32.71236041 167.94738798 29.51185526 159.26196653 26.42041016 148.66210938 C26.11562744 147.60123108 26.11562744 147.60123108 25.8046875 146.5189209 C16.88774431 115.48970702 6.86127828 83.94571936 -16.57958984 60.72460938 C-17.13646484 60.13421875 -17.69333984 59.54382813 -18.26708984 58.93554688 C-30.1460529 47.36593181 -48.04736685 43.1988789 -64.04760742 43.30224609 C-78.80092319 43.78441149 -90.16146176 51.79749944 -99.57958984 62.72460938 Z " fill="#414141" transform="translate(243.57958984375,106.275390625)"/>
</svg>
